<svg version="1.2" xmlns="http://www.w3.org/2000/svg" viewBox="0 0 1300 1047" width="1300" height="1047">
	<title>Exito</title>
	<defs>
		<linearGradient id="g1" x2="1" gradientUnits="userSpaceOnUse" gradientTransform="matrix(0,-1046.931,1301.008,0,650.496,1046.953)">
			<stop offset="0" stop-color="#006cff"/>
			<stop offset=".488" stop-color="#42d445"/>
			<stop offset="1" stop-color="#7cd5b0"/>
		</linearGradient>
	</defs>
	<style>
		.s0 { fill: url(#g1) } 
	</style>
	<path id="Forma 1" fill-rule="evenodd" class="s0" d="m569.8 558.5c10.3-78.7 130.3-73.5 160.6-12.3 29.3 59.2-18.6 112.8-64.3 123.5-29.7 6.9-48.9-9-66.7-14.8-14.5 22.1-58.9 54-64.2 79 3.3 4.4 4.1 12.8 7.4 17.3 13.9 8.7 71.4 13.4 91.4 14.8 9.4-19.2 38.2-46.2 74.1-37 15.6 4 23.4 14.2 39.6 17.3 3.7-5.4 28.1-27.9 24.7-29.7-4.8-13.9-13.6-25.8-17.3-42-14.6-63 52.6-131.3 116.1-116.1 26.1 6.3 39.3 26.8 61.7 32.2 11.7-11.5 30-16 39.5-29.7-19.6-21.5-2.4-74.8 7.5-91.4 38.7-64.7 136.9-43.9 165.5 14.8 14.7-2.7 25.4-7.7 39.5-9.8q2.5-14.9 4.9-29.7c12.3-10.1 19.3-24.7 37.1-29.6 45.3-12.5 69.8 23.5 74.1 54.3q-3.7 16.1-7.4 32.1c-13.5 9.6-34.2 39.4-66.7 27.2-17.1-6.4-24.3-24.9-44.5-27.2-6.6 5.2-20.5 7.9-29.6 9.9 0.4 28.9-7.6 42.4-9.9 64.2 17.5 10.5 29.5 30.1 49.4 37.1 11.9-9.7 36.9-3.5 49.4 0 10.2 15.1 19.7 19.7 19.8 46.9-8.3 11.3-7.8 24.2-22.3 29.7-15.7 14.6-56.8-2.5-56.8-2.5-15.9 3.7-45.8 17.4-54.3 29.6-3.2 7.8 4.9 36.8 0 51.9-9.8 29.9-49.7 73.6-101.3 59.3-16-4.5-27.7-16.4-44.5-19.8-6.8 9.9-17.8 12.3-22.2 24.7 6.6 7.1 4.5 12.9 7.4 24.7 12.2 50-25 57.5-29.6 88.9 2.9 2.7 4 5 7.4 7.5 6.6 4 19.5 1.7 27.1 4.9 13.2 5.5 17.9 18 27.2 27.2 0.8 14 4.4 24.8-2.4 34.5-7.8 26.5-35.1 29.4-66.7 24.7-5.9-13.4-17.7-12.8-19.8-32.1-10.6-16.9 10.5-37.8 7.4-46.9-2.3-9.2-2.3-10.4-12.3-12.3-11.4 7.5-40.8 1.3-49.5-2.5-32.6-14.5-54.5-34.9-59.2-76.6-4.8-41.4 44.4-103.8 103.7-88.9 18.8 4.7 27.3 17.2 46.9 19.8 5.5-8.6 13-15.1 22.3-19.8-24.8-60.5-1-105.8 49.4-123.5 8.4-3 25-8.5 39.5-5 26.8 6.5 40.9 27.5 59.3 32.2 18.6-16.5 52.3-13.3 51.9-49.4 1.8-2.7 1.5-2.4 2.4-7.5-20.8-7.3-29-32.1-51.8-37-31.6 34.8-110.5 25.7-133.4-9.9-2.7 2.3-0.2-0.2-2.5 2.5-12.5 6.7-37.3 17.9-39.5 34.6 8.9 9.9 9.1 39.3 4.9 54.3-12.1 43.4-34.6 68.7-79 79-37.7 8.8-56.6-13.8-81.6-17.2-9.5 13.8-27.3 18.7-29.6 39.5 10.3 15.3-1.1 50-7.4 59.3-35.7 52.5-127.8 27.9-126-44.5-26.1-3-58.9-9.6-84-14.8-15.7-3.3-19.4 6.9-27.2 9.9-13.5 5.1-30.9-3-39.5-5-10.3-18.2-27.1-55.8 5-66.7 9.2-8.8 20-6.3 34.5-4.9 11.5-32.1 56.8-46.4 64.3-81.5-9.3-9.7-13.8-27-14.9-44.5q-19.7-2.5-39.5-4.9c-17.8 87.9-123.8 135.6-205 76.5-16.7-12.1-34.5-38.4-42-59.2-4.1-11.4-1.5-23.5-7.4-32.1-9.9-6.5-39.6-2.8-54.4-2.5-5.7 15.8-9.1 30.7-17.3 44.4-4.7 8-10 6.8-12.3 19.8 12.2 8.3 24.2 27.1 32.1 39.5 20-8.3 36.2-4.5 59.3-2.4 6.4 8.1 18.6 11.5 24.7 19.7 10.5 14.3 10.7 32.8 17.3 51.9 10.9 1.4 14.6 4.2 27.2 4.9 8.2-13.6 38.4-33 59.3-17.3 21.3 6.6 41.1 41.7 24.7 69.2-5.8 9.7-16.9 14.6-24.7 22.2-28.1 2.2-49.4-0.4-61.8-19.7-6.5-10.1-1-21.7-12.4-27.2-6-4.9-14.4-6.8-24.7-7.4-17.7 55.5-104.7 40.5-123.5-5-13.8-33.5 12.2-63.4 9.9-74.1-4.2-13.3-21.6-37.3-34.6-41.9-13.2 12.4-56.9 18-81.5 9.8-33.5-11.1-88.4-60.5-76.6-113.6 11.2-50.1 54.8-115.8 130.9-96.3 19.1 4.9 31.1 18.3 49.5 22.2 8.5-12.5 26.1-17.9 29.6-34.6-6.4-8.4-4-18.6-2.5-29.6-12.5-2.4-25.6-15.5-34.6-12.4-7.5 3.1-4.8 6.6-9.8 9.9-16.8 11-35.7 8.6-59.3 7.4-12.6-14.8-57.2-43.2-32.1-79 6.2-26.1 52-54.2 81.5-32.1 17 5.8 30.1 25.9 34.6 44.4 2.5 10.4-2 20.2 0 24.7 6.1 4.7 29.3 14 32.1 12.4 10.9-3.7 34.9-18.5 51.9-7.4 16.5 4.5 19.6 16.6 29.6 27.1 2.6 24.7 0.2 48.3-19.8 56.9-14.8 14.9-36.4 7.5-54.3 2.4-7.5 11.7-20 22.5-32.1 29.7 8 17 17.8 30.4 19.7 54.3q28.4 1.2 56.9 2.5c10.3-55.5 45.8-101.7 103.7-108.7q-2.5-27.2-4.9-54.3c-46.2-4.7-82.3-60.9-51.9-108.7 12.7-20 34-24 59.3-32.1q4.9-26 9.9-51.9c-11.8-6-15.2-13.7-32.2-14.8-16.1 19.8-77.8 36.3-83.9 59.3 11.9 16.2-3.3 50.5-14.9 59.2-6.9 5.3-15.9 6.7-22.2 12.4q-19.8 0-39.5 0c-33.8-11.4-53.9-63.9-27.2-98.8 8.3-10.9 37.6-26.8 61.8-19.8 10.3 3 24.9 17.7 32.1 14.8 32.4-8.1 60.6-36.8 88.9-51.8-27.6-72.9 66.8-125 116.1-76.6 33.2 32.7 18.3 93.3-14.8 113.6-8.8 5.4-31.1 4-37.1 12.4-7.1 10.5-9.3 34.3-9.8 49.4 31.1 14.4 59.9 62.5 32.1 103.7-12.9 19-38.4 15.4-39.6 46.9 4.2 6.5 4.5 25.9 5 34.6 34.5 0.8 50.1 19.2 76.6 24.7 12.3-18.9 34.3-40.1 51.8-54.3-7.6-25.1-25.1-43.9-32.1-74.1-7-30.3 5.5-63 14.8-79.1 41.6-71.5 105.5-105.8 200.1-61.7 7-20.1 27.7-31.4 34.6-51.9-15-11.9-11.4-30.3-22.2-46.9-16.9-10.7-102.3-12.2-128.5-17.3-4.9 16-16.6 19.7-27.1 29.6-47.3 4.6-68.5-11.9-66.7-64.2 6.6-7 9.2-19.1 17.3-24.7 5.2-3.7 10.4-3.3 14.8-7.4 39.9-1.8 54.7 9.6 66.7 42q64.2 6.2 128.4 12.4c17.7-74.5 124.3-69.7 150.7-5 19.5 47.7-16.8 96.6-51.9 106.2-21.5 6-45.5-3.2-61.7-4.9-7.1 14.6-21.9 37.3-34.6 46.9 2.2 2.7-0.2 0.2 2.5 2.5 22.1 33 59.4 73.8 42 138.3q-7.4 18.5-14.9 37.1c14.6 4.3 34.7 19.2 44.5 29.6 20.6-10.4 31.9-17.4 66.7-17.3 4.3-15.8 14.5-23.3 17.3-42-89-44.2-62.7-188.5 17.3-222.3 85.1-36 158.2 21.3 177.9 84 7.3 23.3 0.3 53.2-2.5 74.1q21 8.6 42 17.3c13.9-18.6 40.4-17.4 69.1-14.8 21.6 26.2 35.2 21.7 34.6 74.1-11.5 13.3-13.4 30.5-32.1 37-36.1 29.7-70.9-13.8-86.4-29.6-0.8-15.3-1.8-27.5 0-42-9.2-2.3-36.5-18.2-39.6-14.8-8.2 6.4-11.8 18.4-19.7 24.7-21.7 17.1-62.2 45.8-108.7 34.5-7.8-1.8-14.9-4.6-27.2-4.9-2.3 8.9-19 35.6-14.8 39.5 35 40.4 28.3 102.6-24.7 118.6-58.7 17.7-96.3-34.3-84-91.4-8.5-5.7-39.8-34.6-46.9-29.6-29.2 17.8-43.8 33.7-84 44.4-37 9.9-73.2-8.5-91.4-19.7-5.5-3.4-17.8-9.6-19.8-7.4-21.4 14.2-34.2 38.9-54.3 54.3 8.5 17.6 20 33.4 27.1 54.3 3.4 10.1-0.5 21.6 2.5 24.7 7.5 6.7 28.7 7.4 42 7.4z"/>
</svg>